<svg width="34" height="15" viewBox="0 0 34 15" fill="none" xmlns="http://www.w3.org/2000/svg">
<path fill-rule="evenodd" clip-rule="evenodd" d="M6.69651 2.12413C6.30974 2.59333 5.69092 2.9634 5.0721 2.91053C4.99475 2.27612 5.29772 1.60207 5.65225 1.18574C6.03901 0.703323 6.71584 0.359686 7.26376 0.333252C7.32822 0.994092 7.07682 1.64172 6.69651 2.12413ZM7.25726 3.03608C6.71209 3.00392 6.21465 3.20417 5.81285 3.36592C5.55429 3.47 5.33533 3.55815 5.16875 3.55815C4.98181 3.55815 4.75381 3.46529 4.49782 3.36103C4.16239 3.22442 3.7789 3.06824 3.37675 3.07574C2.45497 3.08895 1.59764 3.62423 1.12708 4.47672C0.160176 6.18168 0.875686 8.70609 1.81036 10.0939C2.26803 10.7811 2.81594 11.5345 3.5379 11.5081C3.85552 11.4958 4.08399 11.3964 4.32044 11.2935C4.59266 11.1751 4.87545 11.0521 5.31701 11.0521C5.74325 11.0521 6.01367 11.1719 6.27326 11.2869C6.52009 11.3963 6.75712 11.5013 7.109 11.4948C7.85674 11.4816 8.32731 10.8076 8.78497 10.1203C9.27887 9.38266 9.49592 8.66276 9.52885 8.55352L9.53271 8.54088C9.53193 8.54007 9.52583 8.53721 9.51508 8.53217L9.51506 8.53216C9.34995 8.45466 8.08801 7.8624 8.07591 6.2742C8.06376 4.94114 9.07685 4.26572 9.23633 4.1594L9.23636 4.15939C9.24605 4.15292 9.25258 4.14857 9.25554 4.1463C8.61093 3.16825 7.60535 3.06252 7.25726 3.03608ZM12.4335 11.4221V1.11964H16.2044C18.1511 1.11964 19.5112 2.49419 19.5112 4.50314C19.5112 6.5121 18.1253 7.89986 16.1528 7.89986H13.9934V11.4221H12.4335ZM13.9933 2.46776H15.7917C17.1454 2.46776 17.9189 3.2079 17.9189 4.50975C17.9189 5.81161 17.1454 6.55836 15.7853 6.55836H13.9933V2.46776ZM24.6617 10.1864C24.2491 10.9926 23.3403 11.5014 22.3605 11.5014C20.9101 11.5014 19.8981 10.6159 19.8981 9.28102C19.8981 7.95934 20.8779 7.19938 22.6892 7.08704L24.6359 6.96808V6.39976C24.6359 5.5605 24.1009 5.10452 23.1469 5.10452C22.3605 5.10452 21.7868 5.52085 21.6707 6.15525H20.2655C20.3106 4.82036 21.5354 3.84892 23.192 3.84892C24.9775 3.84892 26.1378 4.80714 26.1378 6.29403V11.4221H24.6939V10.1864H24.6617ZM22.7793 10.2789C21.9478 10.2789 21.4192 9.86918 21.4192 9.24138C21.4192 8.59375 21.9285 8.21708 22.9018 8.1576L24.6358 8.04526V8.6268C24.6358 9.59162 23.8365 10.2789 22.7793 10.2789ZM30.9272 11.8253C30.3019 13.6294 29.5864 14.2241 28.0651 14.2241C27.9491 14.2241 27.5623 14.2109 27.4721 14.1845V12.9487C27.5688 12.9619 27.8073 12.9751 27.9298 12.9751C28.6195 12.9751 29.0063 12.6778 29.2448 11.9046L29.3866 11.4486L26.7437 3.94806H28.3745L30.2117 10.0344H30.2439L32.081 3.94806H33.6667L30.9272 11.8253Z" fill="black"/>
</svg>
