<svg width="15" height="19" viewBox="0 0 15 19" fill="none" xmlns="http://www.w3.org/2000/svg">
<path fill-rule="evenodd" clip-rule="evenodd" d="M4.48577 17.5979L4.78007 15.6657L4.12448 15.6499H0.993896L3.16954 1.39176C3.17632 1.34858 3.19823 1.3085 3.23023 1.27999C3.26239 1.25148 3.30337 1.23584 3.34625 1.23584H8.62488C10.3774 1.23584 11.5868 1.61269 12.2181 2.35661C12.5142 2.7056 12.7027 3.07039 12.7939 3.47168C12.8896 3.89284 12.8912 4.39596 12.7979 5.0097L12.7911 5.05434V5.44765L13.0871 5.621C13.3364 5.7577 13.5345 5.9141 13.6865 6.09316C13.9396 6.39164 14.1034 6.77093 14.1726 7.22045C14.2442 7.68283 14.2205 8.2332 14.1034 8.85623C13.9683 9.57278 13.75 10.1969 13.4551 10.7076C13.1839 11.1781 12.8384 11.5685 12.4281 11.8709C12.0364 12.1583 11.571 12.3764 11.0449 12.516C10.5349 12.6532 9.95357 12.7225 9.31594 12.7225H8.90515C8.61149 12.7225 8.32617 12.8318 8.10217 13.0278C7.87755 13.2279 7.72906 13.5013 7.6835 13.8002L7.65245 13.9742L7.13242 17.3799L7.10893 17.5048C7.10263 17.5444 7.09191 17.5641 7.07614 17.5775C7.06212 17.5897 7.04194 17.5979 7.02223 17.5979H4.48577Z" fill="#28356A"/>
<path fill-rule="evenodd" clip-rule="evenodd" d="M13.3675 5.09961C13.3519 5.20372 13.3338 5.31011 13.3136 5.41943C12.6175 9.11362 10.2358 10.3898 7.19416 10.3898H5.64542C5.27341 10.3898 4.95988 10.6689 4.90203 11.0482L3.88451 17.7192C3.84683 17.9683 4.03253 18.1927 4.2756 18.1927H7.0225C7.3477 18.1927 7.62403 17.9485 7.67526 17.6169L7.70221 17.4727L8.2194 14.0804L8.25266 13.8944C8.30326 13.5617 8.58023 13.3173 8.90542 13.3173H9.31621C11.9775 13.3173 14.061 12.2006 14.6699 8.96878C14.9241 7.61877 14.7925 6.49149 14.1194 5.69869C13.9158 5.45968 13.6631 5.26123 13.3675 5.09961Z" fill="#298FC2"/>
<path fill-rule="evenodd" clip-rule="evenodd" d="M12.639 4.79974C12.5326 4.76765 12.4229 4.73864 12.3103 4.71241C12.1972 4.68683 12.0813 4.66419 11.962 4.64431C11.5444 4.57458 11.0868 4.5415 10.5967 4.5415H6.45934C6.35735 4.5415 6.26056 4.56529 6.17402 4.6083C5.98313 4.70313 5.84142 4.88984 5.80705 5.11843L4.92683 10.8805L4.90161 11.0484C4.95946 10.6692 5.27299 10.3901 5.64501 10.3901H7.19375C10.2354 10.3901 12.6171 9.11321 13.3132 5.41968C13.334 5.31035 13.3515 5.20396 13.3671 5.09985C13.191 5.00324 13.0003 4.92063 12.7949 4.85025C12.7441 4.83282 12.6918 4.81603 12.639 4.79974Z" fill="#22284F"/>
<path fill-rule="evenodd" clip-rule="evenodd" d="M5.80735 5.11833C5.84171 4.88974 5.98342 4.70303 6.17431 4.60886C6.26148 4.56568 6.35764 4.54189 6.45963 4.54189H10.597C11.0871 4.54189 11.5447 4.57513 11.9623 4.64486C12.0816 4.66458 12.1975 4.68739 12.3106 4.71297C12.4232 4.73903 12.5329 4.7682 12.6393 4.80013C12.6921 4.81642 12.7444 4.83337 12.7957 4.85015C13.0011 4.92053 13.192 5.00379 13.368 5.09975C13.5752 3.73459 13.3663 2.8051 12.6522 1.96342C11.8648 1.0367 10.4439 0.640137 8.62566 0.640137H3.34686C2.97548 0.640137 2.65864 0.919229 2.60126 1.29917L0.4026 15.704C0.359251 15.9889 0.571897 16.246 0.849961 16.246H4.10885L5.80735 5.11833Z" fill="#28356A"/>
</svg>
