<svg width="1287" height="1115" viewBox="0 0 1287 1115" fill="#F2F4F7" xmlns="http://www.w3.org/2000/svg">
    <g id="MAP">
        <g id="seats:back">
            <!-- seat H+1 -->
            <rect id="seat:H+1" x="48" y="785" width="50" height="50" rx="25" fill="#D0D5DD"/>
            <!-- seat I+1 -->
            <rect id="seat:I+1" x="48" y="855" width="50" height="50" rx="25" fill="#D0D5DD"/>
            <!-- seat J+1 -->
            <rect id="seat:J+1" x="48" y="925" width="50" height="50" rx="25" fill="#D0D5DD"/>
            <!-- seat K+1 -->
            <rect id="seat:K+1" x="48" y="995" width="50" height="50" rx="25" fill="#D0D5DD"/>
            <!-- seat L+1 -->
            <rect id="seat:L+1" x="48" y="1065" width="50" height="50" rx="25" fill="#D0D5DD"/>
            <!-- seat H+2 -->
            <rect id="seat:H+2" x="108" y="785" width="50" height="50" rx="25" fill="#D0D5DD"/>
            <!-- seat I+2 -->
            <rect id="seat:I+2" x="108" y="855" width="50" height="50" rx="25" fill="#D0D5DD"/>
            <!-- seat J+2 -->
            <rect id="seat:J+2" x="108" y="925" width="50" height="50" rx="25" fill="#D0D5DD"/>
            <!-- seat K+2 -->
            <rect id="seat:K+2" x="108" y="995" width="50" height="50" rx="25" fill="#D0D5DD"/>
            <!-- seat L+2 -->
            <rect id="seat:L+2" x="108" y="1065" width="50" height="50" rx="25" fill="#D0D5DD"/>
            <!-- seat H+3 -->
            <rect id="seat:H+3" x="168" y="785" width="50" height="50" rx="25" fill="#D0D5DD"/>
            <!-- seat I+3 -->
            <rect id="seat:I+3" x="168" y="855" width="50" height="50" rx="25" fill="#D0D5DD"/>
            <!-- seat J+3 -->
            <rect id="seat:J+3" x="168" y="925" width="50" height="50" rx="25" fill="#D0D5DD"/>
            <!-- seat K+3 -->
            <rect id="seat:K+3" x="168" y="995" width="50" height="50" rx="25" fill="#D0D5DD"/>
            <!-- seat L+3 -->
            <rect id="seat:L+3" x="168" y="1065" width="50" height="50" rx="25" fill="#D0D5DD"/>
            <!-- seat H+4 -->
            <rect id="seat:H+4" x="228" y="785" width="50" height="50" rx="25" fill="#D0D5DD"/>
            <!-- seat I+4 -->
            <rect id="seat:I+4" x="228" y="855" width="50" height="50" rx="25" fill="#D0D5DD"/>
            <!-- seat J+4 -->
            <rect id="seat:J+4" x="228" y="925" width="50" height="50" rx="25" fill="#D0D5DD"/>
            <!-- seat K+4 -->
            <rect id="seat:K+4" x="228" y="995" width="50" height="50" rx="25" fill="#D0D5DD"/>
            <!-- seat L+4 -->
            <rect id="seat:L+4" x="228" y="1065" width="50" height="50" rx="25" fill="#D0D5DD"/>
            <!-- seat H+5 -->
            <rect id="seat:H+5" x="288" y="785" width="50" height="50" rx="25" fill="#D0D5DD"/>
            <!-- seat I+5 -->
            <rect id="seat:I+5" x="288" y="855" width="50" height="50" rx="25" fill="#D0D5DD"/>
            <!-- seat J+5 -->
            <rect id="seat:J+5" x="288" y="925" width="50" height="50" rx="25" fill="#D0D5DD"/>
            <!-- seat K+5 -->
            <rect id="seat:K+5" x="288" y="995" width="50" height="50" rx="25" fill="#D0D5DD"/>
            <!-- seat L+5 -->
            <rect id="seat:L+5" x="288" y="1065" width="50" height="50" rx="25" fill="#D0D5DD"/>
            <!-- seat H+6 -->
            <rect id="seat:H+6" x="348" y="785" width="50" height="50" rx="25" fill="#D0D5DD"/>
            <!-- seat I+6 -->
            <rect id="seat:I+6" x="348" y="855" width="50" height="50" rx="25" fill="#D0D5DD"/>
            <!-- seat J+6 -->
            <rect id="seat:J+6" x="348" y="925" width="50" height="50" rx="25" fill="#D0D5DD"/>
            <!-- seat K+6 -->
            <rect id="seat:K+6" x="348" y="995" width="50" height="50" rx="25" fill="#D0D5DD"/>
            <!-- seat L+6 -->
            <rect id="seat:L+6" x="348" y="1065" width="50" height="50" rx="25" fill="#D0D5DD"/>
            <!-- seat H+7 -->
            <rect id="seat:H+7" x="408" y="785" width="50" height="50" rx="25" fill="#D0D5DD"/>
            <!-- seat I+7 -->
            <rect id="seat:I+7" x="408" y="855" width="50" height="50" rx="25" fill="#D0D5DD"/>
            <!-- seat J+7 -->
            <rect id="seat:J+7" x="408" y="925" width="50" height="50" rx="25" fill="#D0D5DD"/>
            <!-- seat K+7 -->
            <rect id="seat:K+7" x="408" y="995" width="50" height="50" rx="25" fill="#D0D5DD"/>
            <!-- seat L+7 -->
            <rect id="seat:L+7" x="408" y="1065" width="50" height="50" rx="25" fill="#D0D5DD"/>
            <!-- seat H+8 -->
            <rect id="seat:H+8" x="468" y="785" width="50" height="50" rx="25" fill="#D0D5DD"/>
            <!-- seat I+8 -->
            <rect id="seat:I+8" x="468" y="855" width="50" height="50" rx="25" fill="#D0D5DD"/>
            <!-- seat J+8 -->
            <rect id="seat:J+8" x="468" y="925" width="50" height="50" rx="25" fill="#D0D5DD"/>
            <!-- seat K+8 -->
            <rect id="seat:K+8" x="468" y="995" width="50" height="50" rx="25" fill="#D0D5DD"/>
            <!-- seat L+8 -->
            <rect id="seat:L+8" x="468" y="1065" width="50" height="50" rx="25" fill="#D0D5DD"/>
            <!-- seat H+9 -->
            <rect id="seat:H+9" x="528" y="785" width="50" height="50" rx="25" fill="#D0D5DD"/>
            <!-- seat H+17 -->
            <rect id="seat:H+17" x="1008" y="785" width="50" height="50" rx="25" fill="#D0D5DD"/>
            <!-- seat I+9 -->
            <rect id="seat:I+9" x="528" y="855" width="50" height="50" rx="25" fill="#D0D5DD"/>
            <!-- seat I+17 -->
            <rect id="seat:I+17" x="1008" y="855" width="50" height="50" rx="25" fill="#D0D5DD"/>
            <!-- seat J+9 -->
            <rect id="seat:J+9" x="528" y="925" width="50" height="50" rx="25" fill="#D0D5DD"/>
            <!-- seat J+17 -->
            <rect id="seat:J+17" x="1008" y="925" width="50" height="50" rx="25" fill="#D0D5DD"/>
            <!-- seat K+9 -->
            <rect id="seat:K+9" x="528" y="995" width="50" height="50" rx="25" fill="#D0D5DD"/>
            <!-- seat K+17 -->
            <rect id="seat:K+17" x="1008" y="995" width="50" height="50" rx="25" fill="#D0D5DD"/>
            <!-- seat L+9 -->
            <rect id="seat:L+9" x="528" y="1065" width="50" height="50" rx="25" fill="#D0D5DD"/>
            <!-- seat L+17 -->
            <rect id="seat:L+17" x="1008" y="1065" width="50" height="50" rx="25" fill="#D0D5DD"/>
            <!-- seat H+10 -->
            <rect id="seat:H+10" x="588" y="785" width="50" height="50" rx="25" fill="#D0D5DD"/>
            <!-- seat H+18 -->
            <rect id="seat:H+18" x="1068" y="785" width="50" height="50" rx="25" fill="#D0D5DD"/>
            <!-- seat I+10 -->
            <rect id="seat:I+10" x="588" y="855" width="50" height="50" rx="25" fill="#D0D5DD"/>
            <!-- seat I+18 -->
            <rect id="seat:I+18" x="1068" y="855" width="50" height="50" rx="25" fill="#D0D5DD"/>
            <!-- seat J+10 -->
            <rect id="seat:J+10" x="588" y="925" width="50" height="50" rx="25" fill="#D0D5DD"/>
            <!-- seat J+18 -->
            <rect id="seat:J+18" x="1068" y="925" width="50" height="50" rx="25" fill="#D0D5DD"/>
            <!-- seat K+10 -->
            <rect id="seat:K+10" x="588" y="995" width="50" height="50" rx="25" fill="#D0D5DD"/>
            <!-- seat K+18 -->
            <rect id="seat:K+18" x="1068" y="995" width="50" height="50" rx="25" fill="#D0D5DD"/>
            <!-- seat L+10 -->
            <rect id="seat:L+10" x="588" y="1065" width="50" height="50" rx="25" fill="#D0D5DD"/>
            <!-- seat L+18 -->
            <rect id="seat:L+18" x="1068" y="1065" width="50" height="50" rx="25" fill="#D0D5DD"/>
            <!-- seat H+11 -->
            <rect id="seat:H+11" x="648" y="785" width="50" height="50" rx="25" fill="#D0D5DD"/>
            <!-- seat H+19 -->
            <rect id="seat:H+19" x="1128" y="785" width="50" height="50" rx="25" fill="#D0D5DD"/>
            <!-- seat I+11 -->
            <rect id="seat:I+11" x="648" y="855" width="50" height="50" rx="25" fill="#D0D5DD"/>
            <!-- seat I+19 -->
            <rect id="seat:I+19" x="1128" y="855" width="50" height="50" rx="25" fill="#D0D5DD"/>
            <!-- seat J+11 -->
            <rect id="seat:J+11" x="648" y="925" width="50" height="50" rx="25" fill="#D0D5DD"/>
            <!-- seat J+19 -->
            <rect id="seat:J+19" x="1128" y="925" width="50" height="50" rx="25" fill="#D0D5DD"/>
            <!-- seat K+11 -->
            <rect id="seat:K+11" x="648" y="995" width="50" height="50" rx="25" fill="#D0D5DD"/>
            <!-- seat K+19 -->
            <rect id="seat:K+19" x="1128" y="995" width="50" height="50" rx="25" fill="#D0D5DD"/>
            <!-- seat L+11 -->
            <rect id="seat:L+11" x="648" y="1065" width="50" height="50" rx="25" fill="#D0D5DD"/>
            <!-- seat L+19 -->
            <rect id="seat:L+19" x="1128" y="1065" width="50" height="50" rx="25" fill="#D0D5DD"/>
            <!-- seat H+12 -->
            <rect id="seat:H+12" x="708" y="785" width="50" height="50" rx="25" fill="#D0D5DD"/>
            <!-- seat H+20 -->
            <rect id="seat:H+20" x="1188" y="785" width="50" height="50" rx="25" fill="#D0D5DD"/>
            <!-- seat I+12 -->
            <rect id="seat:I+12" x="708" y="855" width="50" height="50" rx="25" fill="#D0D5DD"/>
            <!-- seat I+20 -->
            <rect id="seat:I+20" x="1188" y="855" width="50" height="50" rx="25" fill="#D0D5DD"/>
            <!-- seat J+12 -->
            <rect id="seat:J+12" x="708" y="925" width="50" height="50" rx="25" fill="#D0D5DD"/>
            <!-- seat J+20 -->
            <rect id="seat:J+20" x="1188" y="925" width="50" height="50" rx="25" fill="#D0D5DD"/>
            <!-- seat K+12 -->
            <rect id="seat:K+12" x="708" y="995" width="50" height="50" rx="25" fill="#D0D5DD"/>
            <!-- seat K+20 -->
            <rect id="seat:K+20" x="1188" y="995" width="50" height="50" rx="25" fill="#D0D5DD"/>
            <!-- seat L+12 -->
            <rect id="seat:L+12" x="708" y="1065" width="50" height="50" rx="25" fill="#D0D5DD"/>
            <!-- seat L+20 -->
            <rect id="seat:L+20" x="1188" y="1065" width="50" height="50" rx="25" fill="#D0D5DD"/>
            <!-- seat H+13 -->
            <rect id="seat:H+13" x="768" y="785" width="50" height="50" rx="25" fill="#D0D5DD"/>
            <!-- seat I+13 -->
            <rect id="seat:I+13" x="768" y="855" width="50" height="50" rx="25" fill="#D0D5DD"/>
            <!-- seat J+13 -->
            <rect id="seat:J+13" x="768" y="925" width="50" height="50" rx="25" fill="#D0D5DD"/>
            <!-- seat K+13 -->
            <rect id="seat:K+13" x="768" y="995" width="50" height="50" rx="25" fill="#D0D5DD"/>
            <!-- seat L+13 -->
            <rect id="seat:L+13" x="768" y="1065" width="50" height="50" rx="25" fill="#D0D5DD"/>
            <!-- seat H+14 -->
            <rect id="seat:H+14" x="828" y="785" width="50" height="50" rx="25" fill="#D0D5DD"/>
            <!-- seat I+14 -->
            <rect id="seat:I+14" x="828" y="855" width="50" height="50" rx="25" fill="#D0D5DD"/>
            <!-- seat J+14 -->
            <rect id="seat:J+14" x="828" y="925" width="50" height="50" rx="25" fill="#D0D5DD"/>
            <!-- seat K+14 -->
            <rect id="seat:K+14" x="828" y="995" width="50" height="50" rx="25" fill="#D0D5DD"/>
            <!-- seat L+14 -->
            <rect id="seat:L+14" x="828" y="1065" width="50" height="50" rx="25" fill="#D0D5DD"/>
            <!-- seat H+15 -->
            <rect id="seat:H+15" x="888" y="785" width="50" height="50" rx="25" fill="#D0D5DD"/>
            <!-- seat I+15 -->
            <rect id="seat:I+15" x="888" y="855" width="50" height="50" rx="25" fill="#D0D5DD"/>
            <!-- seat J+15 -->
            <rect id="seat:J+15" x="888" y="925" width="50" height="50" rx="25" fill="#D0D5DD"/>
            <!-- seat K+15 -->
            <rect id="seat:K+15" x="888" y="995" width="50" height="50" rx="25" fill="#D0D5DD"/>
            <!-- seat L+15 -->
            <rect id="seat:L+15" x="888" y="1065" width="50" height="50" rx="25" fill="#D0D5DD"/>
            <!-- seat H+16 -->
            <rect id="seat:H+16" x="948" y="785" width="50" height="50" rx="25" fill="#D0D5DD"/>
            <!-- seat I+16 -->
            <rect id="seat:I+16" x="948" y="855" width="50" height="50" rx="25" fill="#D0D5DD"/>
            <!-- seat J+16 -->
            <rect id="seat:J+16" x="948" y="925" width="50" height="50" rx="25" fill="#D0D5DD"/>
            <!-- seat K+16 -->
            <rect id="seat:K+16" x="948" y="995" width="50" height="50" rx="25" fill="#D0D5DD"/>
            <!-- seat L+16 -->
            <rect id="seat:L+16" x="948" y="1065" width="50" height="50" rx="25" fill="#D0D5DD"/>
        </g>
        <g id="seats:right">
            <!-- seat A+12 -->
            <rect id="seat:A+12" x="819" y="158" width="50" height="50" rx="25" fill="#D0D5DD"/>
            <!-- seat B+12 -->
            <rect id="seat:B+12" x="828" y="228" width="50" height="50" rx="25" fill="#D0D5DD"/>
            <!-- seat C+12 -->
            <rect id="seat:C+12" x="837" y="298" width="50" height="50" rx="25" fill="#D0D5DD"/>
            <!-- seat D+12 -->
            <rect id="seat:D+12" x="846" y="368" width="50" height="50" rx="25" fill="#D0D5DD"/>
            <!-- seat E+12 -->
            <rect id="seat:E+12" x="855" y="438" width="50" height="50" rx="25" fill="#D0D5DD"/>
            <!-- seat F+12 -->
            <rect id="seat:F+12" x="864" y="508" width="50" height="50" rx="25" fill="#D0D5DD"/>
            <!-- seat G+12 -->
            <rect id="seat:G+12" x="873" y="578" width="50" height="50" rx="25" fill="#D0D5DD"/>
            <!-- seat A+13 -->
            <rect id="seat:A+13" x="882" y="158" width="50" height="50" rx="25" fill="#D0D5DD"/>
            <!-- seat B+13 -->
            <rect id="seat:B+13" x="891" y="228" width="50" height="50" rx="25" fill="#D0D5DD"/>
            <!-- seat C+13 -->
            <rect id="seat:C+13" x="900" y="298" width="50" height="50" rx="25" fill="#D0D5DD"/>
            <!-- seat D+13 -->
            <rect id="seat:D+13" x="909" y="368" width="50" height="50" rx="25" fill="#D0D5DD"/>
            <!-- seat E+13 -->
            <rect id="seat:E+13" x="918" y="438" width="50" height="50" rx="25" fill="#D0D5DD"/>
            <!-- seat F+13 -->
            <rect id="seat:F+13" x="927" y="508" width="50" height="50" rx="25" fill="#D0D5DD"/>
            <!-- seat G+13 -->
            <rect id="seat:G+13" x="936" y="578" width="50" height="50" rx="25" fill="#D0D5DD"/>
            <!-- seat A+14 -->
            <rect id="seat:A+14" x="945" y="158" width="50" height="50" rx="25" fill="#D0D5DD"/>
            <!-- seat B+14 -->
            <rect id="seat:B+14" x="954" y="228" width="50" height="50" rx="25" fill="#D0D5DD"/>
            <!-- seat C+14 -->
            <rect id="seat:C+14" x="963" y="298" width="50" height="50" rx="25" fill="#D0D5DD"/>
            <!-- seat D+14 -->
            <rect id="seat:D+14" x="972" y="368" width="50" height="50" rx="25" fill="#D0D5DD"/>
            <!-- seat E+14 -->
            <rect id="seat:E+14" x="981" y="438" width="50" height="50" rx="25" fill="#D0D5DD"/>
            <!-- seat F+14 -->
            <rect id="seat:F+14" x="990" y="508" width="50" height="50" rx="25" fill="#D0D5DD"/>
            <!-- seat G+14 -->
            <rect id="seat:G+14" x="999" y="578" width="50" height="50" rx="25" fill="#D0D5DD"/>
            <!-- seat A+15 -->
            <rect id="seat:A+15" x="1008" y="158" width="50" height="50" rx="25" fill="#D0D5DD"/>
            <!-- seat B+15 -->
            <rect id="seat:B+15" x="1017" y="228" width="50" height="50" rx="25" fill="#D0D5DD"/>
            <!-- seat C+15 -->
            <rect id="seat:C+15" x="1026" y="298" width="50" height="50" rx="25" fill="#D0D5DD"/>
            <!-- seat D+15 -->
            <rect id="seat:D+15" x="1035" y="368" width="50" height="50" rx="25" fill="#D0D5DD"/>
            <!-- seat E+15 -->
            <rect id="seat:E+15" x="1044" y="438" width="50" height="50" rx="25" fill="#D0D5DD"/>
            <!-- seat F+15 -->
            <rect id="seat:F+15" x="1053" y="508" width="50" height="50" rx="25" fill="#D0D5DD"/>
            <!-- seat G+15 -->
            <rect id="seat:G+15" x="1062" y="578" width="50" height="50" rx="25" fill="#D0D5DD"/>
            <!-- seat A+16 -->
            <rect id="seat:A+16" x="1071" y="158" width="50" height="50" rx="25" fill="#D0D5DD"/>
            <!-- seat B+16 -->
            <rect id="seat:B+16" x="1080" y="228" width="50" height="50" rx="25" fill="#D0D5DD"/>
            <!-- seat C+16 -->
            <rect id="seat:C+16" x="1089" y="298" width="50" height="50" rx="25" fill="#D0D5DD"/>
            <!-- seat D+16 -->
            <rect id="seat:D+16" x="1098" y="368" width="50" height="50" rx="25" fill="#D0D5DD"/>
            <!-- seat E+16 -->
            <rect id="seat:E+16" x="1107" y="438" width="50" height="50" rx="25" fill="#D0D5DD"/>
            <!-- seat F+16 -->
            <rect id="seat:F+16" x="1116" y="508" width="50" height="50" rx="25" fill="#D0D5DD"/>
            <!-- seat G+16 -->
            <rect id="seat:G+16" x="1125" y="578" width="50" height="50" rx="25" fill="#D0D5DD"/>
            <!-- seat A+17 -->
            <rect id="seat:A+17" x="1134" y="158" width="50" height="50" rx="25" fill="#D0D5DD"/>
            <!-- seat B+17 -->
            <rect id="seat:B+17" x="1143" y="228" width="50" height="50" rx="25" fill="#D0D5DD"/>
            <!-- seat C+17 -->
            <rect id="seat:C+17" x="1152" y="298" width="50" height="50" rx="25" fill="#D0D5DD"/>
            <!-- seat D+17 -->
            <rect id="seat:D+17" x="1161" y="368" width="50" height="50" rx="25" fill="#D0D5DD"/>
            <!-- seat E+17 -->
            <rect id="seat:E+17" x="1170" y="438" width="50" height="50" rx="25" fill="#D0D5DD"/>
            <!-- seat F+17 -->
            <rect id="seat:F+17" x="1179" y="508" width="50" height="50" rx="25" fill="#D0D5DD"/>
            <!-- seat G+17 -->
            <rect id="seat:G+17" x="1188" y="578" width="50" height="50" rx="25" fill="#D0D5DD"/>
        </g>
        <g id="seats:left">
            <!-- seat A+1 -->
            <rect id="seat:A+1" x="103" y="158" width="50" height="50" rx="25" fill="#D0D5DD"/>
            <!-- seat D+1 -->
            <rect id="seat:D+1" x="76" y="368" width="50" height="50" rx="25" fill="#D0D5DD"/>
            <!-- seat A+2 -->
            <rect id="seat:A+2" x="166" y="158" width="50" height="50" rx="25" fill="#D0D5DD"/>
            <!-- seat D+2 -->
            <rect id="seat:D+2" x="139" y="368" width="50" height="50" rx="25" fill="#D0D5DD"/>
            <!-- seat A+3 -->
            <rect id="seat:A+3" x="229" y="158" width="50" height="50" rx="25" fill="#D0D5DD"/>
            <!-- seat D+3 -->
            <rect id="seat:D+3" x="202" y="368" width="50" height="50" rx="25" fill="#D0D5DD"/>
            <!-- seat A+4 -->
            <rect id="seat:A+4" x="292" y="158" width="50" height="50" rx="25" fill="#D0D5DD"/>
            <!-- seat D+4 -->
            <rect id="seat:D+4" x="265" y="368" width="50" height="50" rx="25" fill="#D0D5DD"/>
            <!-- seat A+5 -->
            <rect id="seat:A+5" x="355" y="158" width="50" height="50" rx="25" fill="#D0D5DD"/>
            <!-- seat D+5 -->
            <rect id="seat:D+5" x="328" y="368" width="50" height="50" rx="25" fill="#D0D5DD"/>
            <!-- seat A+6 -->
            <rect id="seat:A+6" x="418" y="158" width="50" height="50" rx="25" fill="#D0D5DD"/>
            <!-- seat B+1 -->
            <rect id="seat:B+1" x="94" y="228" width="50" height="50" rx="25" fill="#D0D5DD"/>
            <!-- seat B+2 -->
            <rect id="seat:B+2" x="157" y="228" width="50" height="50" rx="25" fill="#D0D5DD"/>
            <!-- seat B+3 -->
            <rect id="seat:B+3" x="220" y="228" width="50" height="50" rx="25" fill="#D0D5DD"/>
            <!-- seat B+4 -->
            <rect id="seat:B+4" x="283" y="228" width="50" height="50" rx="25" fill="#D0D5DD"/>
            <!-- seat B+5 -->
            <rect id="seat:B+5" x="346" y="228" width="50" height="50" rx="25" fill="#D0D5DD"/>
            <!-- seat B+6 -->
            <rect id="seat:B+6" x="409" y="228" width="50" height="50" rx="25" fill="#D0D5DD"/>
            <!-- seat C+1 -->
            <rect id="seat:C+1" x="85" y="298" width="50" height="50" rx="25" fill="#D0D5DD"/>
            <!-- seat C+2 -->
            <rect id="seat:C+2" x="148" y="298" width="50" height="50" rx="25" fill="#D0D5DD"/>
            <!-- seat C+3 -->
            <rect id="seat:C+3" x="211" y="298" width="50" height="50" rx="25" fill="#D0D5DD"/>
            <!-- seat C+4 -->
            <rect id="seat:C+4" x="274" y="298" width="50" height="50" rx="25" fill="#D0D5DD"/>
            <!-- seat C+5 -->
            <rect id="seat:C+5" x="337" y="298" width="50" height="50" rx="25" fill="#D0D5DD"/>
            <!-- seat C+6 -->
            <rect id="seat:C+6" x="400" y="298" width="50" height="50" rx="25" fill="#D0D5DD"/>
            <!-- seat D+6 -->
            <rect id="seat:D+6" x="391" y="368" width="50" height="50" rx="25" fill="#D0D5DD"/>
            <!-- seat E+1 -->
            <rect id="seat:E+1" x="67" y="438" width="50" height="50" rx="25" fill="#D0D5DD"/>
            <!-- seat E+2 -->
            <rect id="seat:E+2" x="130" y="438" width="50" height="50" rx="25" fill="#D0D5DD"/>
            <!-- seat E+3 -->
            <rect id="seat:E+3" x="193" y="438" width="50" height="50" rx="25" fill="#D0D5DD"/>
            <!-- seat E+4 -->
            <rect id="seat:E+4" x="256" y="438" width="50" height="50" rx="25" fill="#D0D5DD"/>
            <!-- seat E+5 -->
            <rect id="seat:E+5" x="319" y="438" width="50" height="50" rx="25" fill="#D0D5DD"/>
            <!-- seat E+6 -->
            <rect id="seat:E+6" x="382" y="438" width="50" height="50" rx="25" fill="#D0D5DD"/>
            <!-- seat F+1 -->
            <rect id="seat:F+1" x="58" y="508" width="50" height="50" rx="25" fill="#D0D5DD"/>
            <!-- seat F+2 -->
            <rect id="seat:F+2" x="121" y="508" width="50" height="50" rx="25" fill="#D0D5DD"/>
            <!-- seat F+3 -->
            <rect id="seat:F+3" x="184" y="508" width="50" height="50" rx="25" fill="#D0D5DD"/>
            <!-- seat F+4 -->
            <rect id="seat:F+4" x="247" y="508" width="50" height="50" rx="25" fill="#D0D5DD"/>
            <!-- seat F+5 -->
            <rect id="seat:F+5" x="310" y="508" width="50" height="50" rx="25" fill="#D0D5DD"/>
            <!-- seat F+6 -->
            <rect id="seat:F+6" x="373" y="508" width="50" height="50" rx="25" fill="#D0D5DD"/>
            <!-- seat G+1 -->
            <rect id="seat:G+1" x="49" y="578" width="50" height="50" rx="25" fill="#D0D5DD"/>
            <!-- seat G+2 -->
            <rect id="seat:G+2" x="112" y="578" width="50" height="50" rx="25" fill="#D0D5DD"/>
            <!-- seat G+3 -->
            <rect id="seat:G+3" x="175" y="578" width="50" height="50" rx="25" fill="#D0D5DD"/>
            <!-- seat G+4 -->
            <rect id="seat:G+4" x="238" y="578" width="50" height="50" rx="25" fill="#D0D5DD"/>
            <!-- seat G+5 -->
            <rect id="seat:G+5" x="301" y="578" width="50" height="50" rx="25" fill="#D0D5DD"/>
            <!-- seat G+6 -->
            <rect id="seat:G+6" x="364" y="578" width="50" height="50" rx="25" fill="#D0D5DD"/>
        </g>
        <g id="seats:center">
            <!-- seat B+7 -->
            <rect id="seat:B+7" x="498" y="232" width="50" height="50" rx="25" fill="#D0D5DD"/>
            <!-- seat C+7 -->
            <rect id="seat:C+7" x="498" y="302" width="50" height="50" rx="25" fill="#D0D5DD"/>
            <!-- seat D+7 -->
            <rect id="seat:D+7" x="498" y="372" width="50" height="50" rx="25" fill="#D0D5DD"/>
            <!-- seat E+7 -->
            <rect id="seat:E+7" x="498" y="442" width="50" height="50" rx="25" fill="#D0D5DD"/>
            <!-- seat F+7 -->
            <rect id="seat:F+7" x="498" y="512" width="50" height="50" rx="25" fill="#D0D5DD"/>
            <!-- seat B+8 -->
            <rect id="seat:B+8" x="558" y="257" width="50" height="50" rx="25" fill="#D0D5DD"/>
            <!-- seat C+8 -->
            <rect id="seat:C+8" x="558" y="327" width="50" height="50" rx="25" fill="#D0D5DD"/>
            <!-- seat D+8 -->
            <rect id="seat:D+8" x="558" y="397" width="50" height="50" rx="25" fill="#D0D5DD"/>
            <!-- seat E+8 -->
            <rect id="seat:E+8" x="558" y="467" width="50" height="50" rx="25" fill="#D0D5DD"/>
            <!-- seat F+8 -->
            <rect id="seat:F+8" x="558" y="537" width="50" height="50" rx="25" fill="#D0D5DD"/>
            <!-- seat B+9 -->
            <rect id="seat:B+9" x="618" y="257" width="50" height="50" rx="25" fill="#D0D5DD"/>
            <!-- seat C+9 -->
            <rect id="seat:C+9" x="618" y="327" width="50" height="50" rx="25" fill="#D0D5DD"/>
            <!-- seat D+9 -->
            <rect id="seat:D+9" x="618" y="397" width="50" height="50" rx="25" fill="#D0D5DD"/>
            <!-- seat E+9 -->
            <rect id="seat:E+9" x="618" y="467" width="50" height="50" rx="25" fill="#D0D5DD"/>
            <!-- seat F+9 -->
            <rect id="seat:F+9" x="618" y="537" width="50" height="50" rx="25" fill="#D0D5DD"/>
            <!-- seat B+10 -->
            <rect id="seat:B+10" x="678" y="257" width="50" height="50" rx="25" fill="#D0D5DD"/>
            <!-- seat C+10 -->
            <rect id="seat:C+10" x="678" y="327" width="50" height="50" rx="25" fill="#D0D5DD"/>
            <!-- seat D+10 -->
            <rect id="seat:D+10" x="678" y="397" width="50" height="50" rx="25" fill="#D0D5DD"/>
            <!-- seat E+10 -->
            <rect id="seat:E+10" x="678" y="467" width="50" height="50" rx="25" fill="#D0D5DD"/>
            <!-- seat F+10 -->
            <rect id="seat:F+10" x="678" y="537" width="50" height="50" rx="25" fill="#D0D5DD"/>
            <!-- seat B+11 -->
            <rect id="seat:B+11" x="738" y="232" width="50" height="50" rx="25" fill="#D0D5DD"/>
            <!-- seat C+11 -->
            <rect id="seat:C+11" x="738" y="302" width="50" height="50" rx="25" fill="#D0D5DD"/>
            <!-- seat D+11 -->
            <rect id="seat:D+11" x="738" y="372" width="50" height="50" rx="25" fill="#D0D5DD"/>
            <!-- seat E+11 -->
            <rect id="seat:E+11" x="738" y="442" width="50" height="50" rx="25" fill="#D0D5DD"/>
            <!-- seat F+11 -->
            <rect id="seat:F+11" x="738" y="512" width="50" height="50" rx="25" fill="#D0D5DD"/>
        </g>
        <g id="details:patio">
            <path id="Union" fill-rule="evenodd" clip-rule="evenodd"
                  d="M1239 0H49V122H494V165.935C494 176.268 500.356 185.535 509.995 189.257L634.995 237.523C640.79 239.76 647.21 239.76 653.005 237.523L778.005 189.257C787.644 185.535 794 176.268 794 165.935V122H1239V0Z"
                  fill="#EAECF0"/>
            <g id="patio">
                <path d="M552.227 139V104.091H564.023C566.761 104.091 569 104.585 570.739 105.574C572.489 106.551 573.784 107.875 574.625 109.545C575.466 111.216 575.886 113.08 575.886 115.136C575.886 117.193 575.466 119.062 574.625 120.744C573.795 122.426 572.511 123.767 570.773 124.767C569.034 125.756 566.807 126.25 564.091 126.25H555.636V122.5H563.955C565.83 122.5 567.335 122.176 568.472 121.528C569.608 120.881 570.432 120.006 570.943 118.903C571.466 117.79 571.727 116.534 571.727 115.136C571.727 113.739 571.466 112.489 570.943 111.386C570.432 110.284 569.602 109.42 568.455 108.795C567.307 108.159 565.784 107.841 563.886 107.841H556.455V139H552.227Z"
                      fill="#98A2B3"/>
                <path d="M612.151 121.545C612.151 125.227 611.486 128.409 610.156 131.091C608.827 133.773 607.003 135.841 604.685 137.295C602.367 138.75 599.719 139.477 596.742 139.477C593.764 139.477 591.116 138.75 588.798 137.295C586.48 135.841 584.656 133.773 583.327 131.091C581.997 128.409 581.332 125.227 581.332 121.545C581.332 117.864 581.997 114.682 583.327 112C584.656 109.318 586.48 107.25 588.798 105.795C591.116 104.341 593.764 103.614 596.742 103.614C599.719 103.614 602.367 104.341 604.685 105.795C607.003 107.25 608.827 109.318 610.156 112C611.486 114.682 612.151 117.864 612.151 121.545ZM608.06 121.545C608.06 118.523 607.554 115.972 606.543 113.892C605.543 111.812 604.185 110.239 602.469 109.17C600.764 108.102 598.855 107.568 596.742 107.568C594.628 107.568 592.713 108.102 590.997 109.17C589.293 110.239 587.935 111.812 586.923 113.892C585.923 115.972 585.423 118.523 585.423 121.545C585.423 124.568 585.923 127.119 586.923 129.199C587.935 131.278 589.293 132.852 590.997 133.92C592.713 134.989 594.628 135.523 596.742 135.523C598.855 135.523 600.764 134.989 602.469 133.92C604.185 132.852 605.543 131.278 606.543 129.199C607.554 127.119 608.06 124.568 608.06 121.545ZM594.901 100.545L599.06 92.6364H603.764L598.446 100.545H594.901Z"
                      fill="#98A2B3"/>
                <path d="M630.031 139H619.259V104.091H630.509C633.895 104.091 636.793 104.79 639.202 106.187C641.611 107.574 643.457 109.568 644.742 112.17C646.026 114.761 646.668 117.864 646.668 121.477C646.668 125.114 646.02 128.244 644.724 130.869C643.429 133.483 641.543 135.494 639.065 136.903C636.588 138.301 633.577 139 630.031 139ZM623.486 135.25H629.759C632.645 135.25 635.037 134.693 636.935 133.58C638.832 132.466 640.247 130.881 641.179 128.824C642.111 126.767 642.577 124.318 642.577 121.477C642.577 118.659 642.116 116.233 641.196 114.199C640.276 112.153 638.901 110.585 637.071 109.494C635.241 108.392 632.963 107.841 630.236 107.841H623.486V135.25Z"
                      fill="#98A2B3"/>
                <path d="M657.986 104.091V139H653.759V104.091H657.986Z" fill="#98A2B3"/>
                <path d="M689.371 104.091H693.598V127.205C693.598 129.591 693.036 131.722 691.911 133.597C690.797 135.46 689.223 136.932 687.189 138.011C685.155 139.08 682.768 139.614 680.03 139.614C677.291 139.614 674.905 139.08 672.871 138.011C670.837 136.932 669.257 135.46 668.132 133.597C667.018 131.722 666.462 129.591 666.462 127.205V104.091H670.689V126.864C670.689 128.568 671.064 130.085 671.814 131.415C672.564 132.733 673.632 133.773 675.018 134.534C676.416 135.284 678.087 135.659 680.03 135.659C681.973 135.659 683.643 135.284 685.041 134.534C686.439 133.773 687.507 132.733 688.246 131.415C688.996 130.085 689.371 128.568 689.371 126.864V104.091Z"
                      fill="#98A2B3"/>
                <path d="M702.04 104.091H707.085L718.949 133.068H719.358L731.222 104.091H736.267V139H732.313V112.477H731.972L721.063 139H717.244L706.335 112.477H705.994V139H702.04V104.091Z"
                      fill="#98A2B3"/>
            </g>
        </g>
        <g id="details:left-legend">
            <path id="A"
                  d="M3.22018 192H1.00427L7.41336 174.545H9.59518L16.0043 192H13.7884L8.57245 177.307H8.43609L3.22018 192ZM4.03836 185.182H12.9702V187.057H4.03836V185.182Z"
                  fill="#D0D5DD"/>
            <path id="B"
                  d="M3.30896 266V248.545H9.41123C10.6271 248.545 11.63 248.756 12.4198 249.176C13.2095 249.591 13.7976 250.151 14.184 250.855C14.5703 251.554 14.7635 252.33 14.7635 253.182C14.7635 253.932 14.63 254.551 14.3629 255.04C14.1016 255.528 13.755 255.915 13.3232 256.199C12.897 256.483 12.434 256.693 11.934 256.83V257C12.4681 257.034 13.005 257.222 13.5448 257.563C14.0845 257.903 14.5362 258.392 14.8999 259.028C15.2635 259.665 15.4453 260.443 15.4453 261.364C15.4453 262.239 15.2465 263.026 14.8487 263.724C14.451 264.423 13.8232 264.977 12.9652 265.386C12.1073 265.795 10.9908 266 9.61578 266H3.30896ZM5.4226 264.125H9.61578C10.9965 264.125 11.9766 263.858 12.5561 263.324C13.1413 262.784 13.434 262.131 13.434 261.364C13.434 260.773 13.2834 260.227 12.9823 259.727C12.6811 259.222 12.2521 258.818 11.6953 258.517C11.1385 258.21 10.4794 258.057 9.71805 258.057H5.4226V264.125ZM5.4226 256.216H9.34305C9.97941 256.216 10.5533 256.091 11.0646 255.841C11.5817 255.591 11.9908 255.239 12.2919 254.784C12.5987 254.33 12.7521 253.795 12.7521 253.182C12.7521 252.415 12.4851 251.764 11.951 251.23C11.4169 250.69 10.5703 250.42 9.41123 250.42H5.4226V256.216Z"
                  fill="#D0D5DD"/>
            <path id="C"
                  d="M16.4287 324H14.3151C14.1901 323.392 13.9713 322.858 13.6588 322.398C13.352 321.938 12.977 321.551 12.5338 321.239C12.0963 320.92 11.6105 320.682 11.0764 320.523C10.5423 320.364 9.98551 320.284 9.40596 320.284C8.34914 320.284 7.39176 320.551 6.5338 321.085C5.68153 321.619 5.00255 322.406 4.49687 323.446C3.99687 324.486 3.74687 325.761 3.74687 327.273C3.74687 328.784 3.99687 330.06 4.49687 331.099C5.00255 332.139 5.68153 332.926 6.5338 333.46C7.39176 333.994 8.34914 334.261 9.40596 334.261C9.98551 334.261 10.5423 334.182 11.0764 334.023C11.6105 333.864 12.0963 333.628 12.5338 333.315C12.977 332.997 13.352 332.608 13.6588 332.148C13.9713 331.682 14.1901 331.148 14.3151 330.545H16.4287C16.2696 331.438 15.9798 332.236 15.5594 332.94C15.1389 333.645 14.6162 334.244 13.9912 334.739C13.3662 335.227 12.6645 335.599 11.8861 335.855C11.1133 336.111 10.2866 336.239 9.40596 336.239C7.91733 336.239 6.59346 335.875 5.43437 335.148C4.27528 334.42 3.36335 333.386 2.69858 332.045C2.0338 330.705 1.70142 329.114 1.70142 327.273C1.70142 325.432 2.0338 323.841 2.69858 322.5C3.36335 321.159 4.27528 320.125 5.43437 319.398C6.59346 318.67 7.91733 318.307 9.40596 318.307C10.2866 318.307 11.1133 318.435 11.8861 318.69C12.6645 318.946 13.3662 319.321 13.9912 319.815C14.6162 320.304 15.1389 320.901 15.5594 321.605C15.9798 322.304 16.2696 323.102 16.4287 324Z"
                  fill="#D0D5DD"/>
            <path id="D"
                  d="M7.87501 406H2.48865V388.545H8.11365C9.80683 388.545 11.2557 388.895 12.4602 389.594C13.6648 390.287 14.5881 391.284 15.2301 392.585C15.8722 393.881 16.1932 395.432 16.1932 397.239C16.1932 399.057 15.8693 400.622 15.2216 401.935C14.5739 403.241 13.6307 404.247 12.3921 404.952C11.1534 405.651 9.64774 406 7.87501 406ZM4.60228 404.125H7.73865C9.18183 404.125 10.3779 403.847 11.3267 403.29C12.2756 402.733 12.983 401.94 13.4489 400.912C13.9148 399.884 14.1477 398.659 14.1477 397.239C14.1477 395.83 13.9176 394.616 13.4574 393.599C12.9972 392.577 12.3097 391.793 11.3949 391.247C10.4801 390.696 9.34092 390.42 7.97728 390.42H4.60228V404.125Z"
                  fill="#D0D5DD"/>
            <path id="E"
                  d="M3.44177 476V458.545H13.9759V460.42H5.55541V466.318H13.4304V468.193H5.55541V474.125H14.1122V476H3.44177Z"
                  fill="#D0D5DD"/>
            <path id="F" d="M3.57068 546V528.545H14.0366V530.42H5.68432V536.318H13.2525V538.193H5.68432V546H3.57068Z"
                  fill="#D0D5DD"/>
            <path id="G"
                  d="M14.1276 604C13.9401 603.426 13.6929 602.912 13.3861 602.457C13.0849 601.997 12.7241 601.605 12.3037 601.281C11.8889 600.957 11.4173 600.71 10.8889 600.54C10.3605 600.369 9.78096 600.284 9.15028 600.284C8.11619 600.284 7.17585 600.551 6.32926 601.085C5.48267 601.619 4.80937 602.406 4.30937 603.446C3.80937 604.486 3.55937 605.761 3.55937 607.273C3.55937 608.784 3.81221 610.06 4.31789 611.099C4.82358 612.139 5.50823 612.926 6.37187 613.46C7.23551 613.994 8.2071 614.261 9.28664 614.261C10.2866 614.261 11.1673 614.048 11.9287 613.622C12.6957 613.19 13.2923 612.582 13.7185 611.798C14.1503 611.009 14.3662 610.08 14.3662 609.011L15.0139 609.148H9.76392V607.273H16.4116V609.148C16.4116 610.585 16.1048 611.835 15.4912 612.898C14.8832 613.96 14.0423 614.784 12.9685 615.369C11.9003 615.949 10.673 616.239 9.28664 616.239C7.74119 616.239 6.38323 615.875 5.21278 615.148C4.04801 614.42 3.13892 613.386 2.48551 612.045C1.83778 610.705 1.51392 609.114 1.51392 607.273C1.51392 605.892 1.69858 604.651 2.06789 603.548C2.44289 602.44 2.9713 601.497 3.65312 600.719C4.33494 599.94 5.14176 599.344 6.07358 598.929C7.00539 598.514 8.03096 598.307 9.15028 598.307C10.0707 598.307 10.9287 598.446 11.7241 598.724C12.5253 598.997 13.2383 599.386 13.8633 599.892C14.494 600.392 15.0196 600.992 15.4401 601.69C15.8605 602.384 16.1503 603.153 16.3094 604H14.1276Z"
                  fill="#D0D5DD"/>
            <path id="H"
                  d="M2.23083 819V801.545H4.34447V809.318H13.6513V801.545H15.7649V819H13.6513V811.193H4.34447V819H2.23083Z"
                  fill="#D0D5DD"/>
            <path id="I" d="M9.5515 871.545V889H7.43787V871.545H9.5515Z" fill="#D0D5DD"/>
            <path id="J"
                  d="M11.2798 941.545H13.3935V954.023C13.3935 955.136 13.1889 956.082 12.7798 956.861C12.3708 957.639 11.794 958.23 11.0497 958.634C10.3054 959.037 9.42757 959.239 8.4162 959.239C7.46166 959.239 6.61223 959.065 5.86791 958.719C5.12359 958.366 4.53836 957.866 4.11223 957.219C3.68609 956.571 3.47302 955.801 3.47302 954.909H5.55257C5.55257 955.403 5.67473 955.835 5.91904 956.205C6.16904 956.568 6.50995 956.852 6.94177 957.057C7.37359 957.261 7.86507 957.364 8.4162 957.364C9.02416 957.364 9.5412 957.236 9.96734 956.98C10.3935 956.724 10.7173 956.349 10.9389 955.855C11.1662 955.355 11.2798 954.744 11.2798 954.023V941.545Z"
                  fill="#D0D5DD"/>
            <path id="K"
                  d="M3.28552 1029V1011.55H5.39916V1020.2H5.6037L13.4446 1011.55H16.206L8.87643 1019.42L16.206 1029H13.6492L7.58098 1020.89L5.39916 1023.34V1029H3.28552Z"
                  fill="#D0D5DD"/>
            <path id="L" d="M4.36365 1099V1081.55H6.47728V1097.13H14.5909V1099H4.36365Z" fill="#D0D5DD"/>
        </g>
        <g id="details:right-legend">
            <path id="A_2"
                  d="M1272.22 192H1270L1276.41 174.545H1278.6L1285 192H1282.79L1277.57 177.307H1277.44L1272.22 192ZM1273.04 185.182H1281.97V187.057H1273.04V185.182Z"
                  fill="#D0D5DD"/>
            <path id="B_2"
                  d="M1272.31 266V248.545H1278.41C1279.63 248.545 1280.63 248.756 1281.42 249.176C1282.21 249.591 1282.8 250.151 1283.18 250.855C1283.57 251.554 1283.76 252.33 1283.76 253.182C1283.76 253.932 1283.63 254.551 1283.36 255.04C1283.1 255.528 1282.75 255.915 1282.32 256.199C1281.9 256.483 1281.43 256.693 1280.93 256.83V257C1281.47 257.034 1282 257.222 1282.54 257.563C1283.08 257.903 1283.54 258.392 1283.9 259.028C1284.26 259.665 1284.45 260.443 1284.45 261.364C1284.45 262.239 1284.25 263.026 1283.85 263.724C1283.45 264.423 1282.82 264.977 1281.97 265.386C1281.11 265.795 1279.99 266 1278.62 266H1272.31ZM1274.42 264.125H1278.62C1280 264.125 1280.98 263.858 1281.56 263.324C1282.14 262.784 1282.43 262.131 1282.43 261.364C1282.43 260.773 1282.28 260.227 1281.98 259.727C1281.68 259.222 1281.25 258.818 1280.7 258.517C1280.14 258.21 1279.48 258.057 1278.72 258.057H1274.42V264.125ZM1274.42 256.216H1278.34C1278.98 256.216 1279.55 256.091 1280.06 255.841C1280.58 255.591 1280.99 255.239 1281.29 254.784C1281.6 254.33 1281.75 253.795 1281.75 253.182C1281.75 252.415 1281.49 251.764 1280.95 251.23C1280.42 250.69 1279.57 250.42 1278.41 250.42H1274.42V256.216Z"
                  fill="#D0D5DD"/>
            <path id="C_2"
                  d="M1285.43 324H1283.31C1283.19 323.392 1282.97 322.858 1282.66 322.398C1282.35 321.938 1281.98 321.551 1281.53 321.239C1281.1 320.92 1280.61 320.682 1280.08 320.523C1279.54 320.364 1278.99 320.284 1278.41 320.284C1277.35 320.284 1276.39 320.551 1275.53 321.085C1274.68 321.619 1274 322.406 1273.5 323.446C1273 324.486 1272.75 325.761 1272.75 327.273C1272.75 328.784 1273 330.06 1273.5 331.099C1274 332.139 1274.68 332.926 1275.53 333.46C1276.39 333.994 1277.35 334.261 1278.41 334.261C1278.99 334.261 1279.54 334.182 1280.08 334.023C1280.61 333.864 1281.1 333.628 1281.53 333.315C1281.98 332.997 1282.35 332.608 1282.66 332.148C1282.97 331.682 1283.19 331.148 1283.31 330.545H1285.43C1285.27 331.438 1284.98 332.236 1284.56 332.94C1284.14 333.645 1283.62 334.244 1282.99 334.739C1282.37 335.227 1281.66 335.599 1280.89 335.855C1280.11 336.111 1279.29 336.239 1278.41 336.239C1276.92 336.239 1275.59 335.875 1274.43 335.148C1273.28 334.42 1272.36 333.386 1271.7 332.045C1271.03 330.705 1270.7 329.114 1270.7 327.273C1270.7 325.432 1271.03 323.841 1271.7 322.5C1272.36 321.159 1273.28 320.125 1274.43 319.398C1275.59 318.67 1276.92 318.307 1278.41 318.307C1279.29 318.307 1280.11 318.435 1280.89 318.69C1281.66 318.946 1282.37 319.321 1282.99 319.815C1283.62 320.304 1284.14 320.901 1284.56 321.605C1284.98 322.304 1285.27 323.102 1285.43 324Z"
                  fill="#D0D5DD"/>
            <path id="D_2"
                  d="M1276.88 406H1271.49V388.545H1277.11C1278.81 388.545 1280.26 388.895 1281.46 389.594C1282.66 390.287 1283.59 391.284 1284.23 392.585C1284.87 393.881 1285.19 395.432 1285.19 397.239C1285.19 399.057 1284.87 400.622 1284.22 401.935C1283.57 403.241 1282.63 404.247 1281.39 404.952C1280.15 405.651 1278.65 406 1276.88 406ZM1273.6 404.125H1276.74C1278.18 404.125 1279.38 403.847 1280.33 403.29C1281.28 402.733 1281.98 401.94 1282.45 400.912C1282.91 399.884 1283.15 398.659 1283.15 397.239C1283.15 395.83 1282.92 394.616 1282.46 393.599C1282 392.577 1281.31 391.793 1280.39 391.247C1279.48 390.696 1278.34 390.42 1276.98 390.42H1273.6V404.125Z"
                  fill="#D0D5DD"/>
            <path id="E_2"
                  d="M1272.44 476V458.545H1282.98V460.42H1274.56V466.318H1282.43V468.193H1274.56V474.125H1283.11V476H1272.44Z"
                  fill="#D0D5DD"/>
            <path id="F_2" d="M1272.57 546V528.545H1283.04V530.42H1274.68V536.318H1282.25V538.193H1274.68V546H1272.57Z"
                  fill="#D0D5DD"/>
            <path id="G_2"
                  d="M1283.13 604C1282.94 603.426 1282.69 602.912 1282.39 602.457C1282.08 601.997 1281.72 601.605 1281.3 601.281C1280.89 600.957 1280.42 600.71 1279.89 600.54C1279.36 600.369 1278.78 600.284 1278.15 600.284C1277.12 600.284 1276.18 600.551 1275.33 601.085C1274.48 601.619 1273.81 602.406 1273.31 603.446C1272.81 604.486 1272.56 605.761 1272.56 607.273C1272.56 608.784 1272.81 610.06 1273.32 611.099C1273.82 612.139 1274.51 612.926 1275.37 613.46C1276.24 613.994 1277.21 614.261 1278.29 614.261C1279.29 614.261 1280.17 614.048 1280.93 613.622C1281.7 613.19 1282.29 612.582 1282.72 611.798C1283.15 611.009 1283.37 610.08 1283.37 609.011L1284.01 609.148H1278.76V607.273H1285.41V609.148C1285.41 610.585 1285.1 611.835 1284.49 612.898C1283.88 613.96 1283.04 614.784 1281.97 615.369C1280.9 615.949 1279.67 616.239 1278.29 616.239C1276.74 616.239 1275.38 615.875 1274.21 615.148C1273.05 614.42 1272.14 613.386 1271.49 612.045C1270.84 610.705 1270.51 609.114 1270.51 607.273C1270.51 605.892 1270.7 604.651 1271.07 603.548C1271.44 602.44 1271.97 601.497 1272.65 600.719C1273.33 599.94 1274.14 599.344 1275.07 598.929C1276.01 598.514 1277.03 598.307 1278.15 598.307C1279.07 598.307 1279.93 598.446 1280.72 598.724C1281.53 598.997 1282.24 599.386 1282.86 599.892C1283.49 600.392 1284.02 600.992 1284.44 601.69C1284.86 602.384 1285.15 603.153 1285.31 604H1283.13Z"
                  fill="#D0D5DD"/>
            <path id="H_2"
                  d="M1271.23 819V801.545H1273.34V809.318H1282.65V801.545H1284.76V819H1282.65V811.193H1273.34V819H1271.23Z"
                  fill="#D0D5DD"/>
            <path id="I_2" d="M1278.55 871.545V889H1276.44V871.545H1278.55Z" fill="#D0D5DD"/>
            <path id="J_2"
                  d="M1280.28 941.545H1282.39V954.023C1282.39 955.136 1282.19 956.082 1281.78 956.861C1281.37 957.639 1280.79 958.23 1280.05 958.634C1279.31 959.037 1278.43 959.239 1277.42 959.239C1276.46 959.239 1275.61 959.065 1274.87 958.719C1274.12 958.366 1273.54 957.866 1273.11 957.219C1272.69 956.571 1272.47 955.801 1272.47 954.909H1274.55C1274.55 955.403 1274.67 955.835 1274.92 956.205C1275.17 956.568 1275.51 956.852 1275.94 957.057C1276.37 957.261 1276.87 957.364 1277.42 957.364C1278.02 957.364 1278.54 957.236 1278.97 956.98C1279.39 956.724 1279.72 956.349 1279.94 955.855C1280.17 955.355 1280.28 954.744 1280.28 954.023V941.545Z"
                  fill="#D0D5DD"/>
            <path id="K_2"
                  d="M1272.29 1029V1011.55H1274.4V1020.2H1274.6L1282.44 1011.55H1285.21L1277.88 1019.42L1285.21 1029H1282.65L1276.58 1020.89L1274.4 1023.34V1029H1272.29Z"
                  fill="#D0D5DD"/>
            <path id="L_2" d="M1273.36 1099V1081.55H1275.48V1097.13H1283.59V1099H1273.36Z" fill="#D0D5DD"/>
        </g>
    </g>
</svg>
